<svg xmlns="http://www.w3.org/2000/svg" width="1200" height="360" viewBox="0 0 1200 360" fill="none" stroke="#C9A86A" stroke-width="1.4" stroke-linecap="round">
  <path d="M-20 40 Q200 18 420 42 T860 40 T1240 36"/>
  <path d="M-20 78 Q220 54 440 80 T880 76 T1240 72"/>
  <path d="M-20 120 Q180 92 400 122 T840 116 T1240 112"/>
  <path d="M-20 164 Q240 132 460 168 T900 158 T1240 156"/>
  <path d="M-20 210 Q200 176 420 214 T860 202 T1240 200"/>
  <path d="M-20 258 Q230 222 450 262 T890 248 T1240 246"/>
  <path d="M-20 306 Q190 268 410 310 T850 296 T1240 294"/>
</svg>
